<svg width="21" height="26" viewBox="0 0 21 26" fill="none" xmlns="http://www.w3.org/2000/svg">
<path fill-rule="evenodd" clip-rule="evenodd" d="M3 2H17.0658C17.6181 2 18.0658 2.44771 18.0658 3V22.4692C18.0658 23.0214 17.6181 23.4692 17.0658 23.4692H3C2.44772 23.4692 2 23.0214 2 22.4692V3C2 2.44772 2.44771 2 3 2ZM0 3C0 1.34314 1.34315 0 3 0H17.0658C18.7226 0 20.0658 1.34315 20.0658 3V22.4692C20.0658 24.126 18.7226 25.4692 17.0658 25.4692H3C1.34315 25.4692 0 24.126 0 22.4692V3ZM8.11181 22.4904H12.8081V21.4904H8.11181V22.4904Z" fill="#0090FF"/>
</svg>
