<svg width="27" height="24" viewBox="0 0 27 24" fill="none" xmlns="http://www.w3.org/2000/svg">
<path fill-rule="evenodd" clip-rule="evenodd" d="M18.7237 6.44363C18.7237 8.6858 16.6037 10.8873 13.4869 10.8873C10.37 10.8873 8.25005 8.6858 8.25005 6.44363C8.25005 4.20145 10.37 2 13.4869 2C16.6037 2 18.7237 4.20145 18.7237 6.44363ZM17.3104 11.9155C19.3599 10.7778 20.7237 8.7525 20.7237 6.44363C20.7237 2.88491 17.4837 0 13.4869 0C9.4901 0 6.25005 2.88491 6.25005 6.44363C6.25005 8.75249 7.61388 10.7777 9.66337 11.9155C7.52454 12.4785 5.5558 13.5105 3.95021 14.9401C1.95671 16.7151 0.651723 18.9885 0.188307 21.4314C0.0637595 22.088 0 22.7568 0 23.4314H2L13.4868 23.4314H24.9737H26.9737C26.9737 22.7568 26.9099 22.088 26.7854 21.4314C26.322 18.9885 25.017 16.7151 23.0235 14.9401C21.4179 13.5105 19.4492 12.4786 17.3104 11.9155ZM21.6935 16.4338C23.2689 17.8365 24.3061 19.5792 24.7411 21.4314H13.4868L2.2326 21.4314C2.66754 19.5792 3.70483 17.8365 5.28019 16.4338C7.42133 14.5273 10.3702 13.4229 13.4868 13.4229C16.6035 13.4229 19.5524 14.5273 21.6935 16.4338Z" fill="#0090FF"/>
</svg>
