<svg width="22" height="21" viewBox="0 0 22 21" fill="none" xmlns="http://www.w3.org/2000/svg">
<path fill-rule="evenodd" clip-rule="evenodd" d="M10.5265 0C9.76229 0 9.00339 0.133911 8.29221 0.396203C7.58099 0.65851 6.9278 1.04548 6.37247 1.53994C5.81692 2.0346 5.36919 2.62819 5.06117 3.29031C4.83636 3.77357 4.69004 4.28472 4.62731 4.8075H3C1.34315 4.8075 0 6.15064 0 7.8075V17.0379C0 18.6948 1.34315 20.0379 3 20.0379H18.0526C19.7095 20.0379 21.0526 18.6948 21.0526 17.0379V7.8075C21.0526 6.15064 19.7095 4.8075 18.0526 4.8075H16.4256C16.3629 4.28472 16.2166 3.77357 15.9918 3.29031C15.6838 2.62819 15.236 2.0346 14.6805 1.53994C14.1252 1.04548 13.472 0.65851 12.7607 0.396202C12.0496 0.133911 11.2907 0 10.5265 0ZM14.4013 4.8075C14.3545 4.57836 14.2801 4.35259 14.1784 4.1339C13.9905 3.72996 13.7113 3.35491 13.3505 3.03364C12.9895 2.71218 12.5548 2.45192 12.0687 2.27265C11.5826 2.09337 11.0582 2 10.5265 2C9.99472 2 9.47038 2.09337 8.98427 2.27265C8.4982 2.45192 8.06349 2.71218 7.70246 3.03364C7.34164 3.35491 7.06247 3.72996 6.87455 4.1339C6.77282 4.35259 6.69844 4.57836 6.65165 4.8075H14.4013ZM3 6.8075H18.0526C18.6049 6.8075 19.0526 7.25521 19.0526 7.8075V17.0379C19.0526 17.5902 18.6049 18.0379 18.0526 18.0379H11.1841V14.3391C11.9434 14.1479 12.4998 13.5262 12.4998 12.7889C12.4998 11.8992 11.6898 11.178 10.6906 11.178C9.69144 11.178 8.88143 11.8992 8.88143 12.7889C8.88143 13.5263 9.43785 14.1479 10.1972 14.3392V18.0379H3C2.44772 18.0379 2 17.5902 2 17.0379V7.8075C2 7.25521 2.44772 6.8075 3 6.8075Z" fill="#0090FF"/>
</svg>
